{
    "asset" : {
        "generator" : "Khronos glTF Blender I/O v1.1.46",
        "version" : "2.0"
    },
    "scene" : 0,
    "scenes" : [
        {
            "name" : "Scene",
            "nodes" : [
                4
            ]
        }
    ],
    "nodes" : [
        {
            "mesh" : 0,
            "name" : "Shure_3"
        },
        {
            "mesh" : 1,
            "name" : "Shure_4"
        },
        {
            "mesh" : 2,
            "name" : "steel_base"
        },
        {
            "mesh" : 3,
            "name" : "steel_gray"
        },
        {
            "children" : [
                0,
                1,
                2,
                3
            ],
            "mesh" : 4,
            "name" : "Sphere001"
        }
    ],
    "materials" : [
        {
            "doubleSided" : true,
            "emissiveFactor" : [
                0,
                0,
                0
            ],
            "name" : "steel_base",
            "pbrMetallicRoughness" : {
                "baseColorFactor" : [
                    0.800000011920929,
                    0.800000011920929,
                    0.800000011920929,
                    1
                ],
                "metallicFactor" : 1,
                "roughnessFactor" : 0.1878787875175476
            }
        },
        {
            "doubleSided" : true,
            "emissiveFactor" : [
                0,
                0,
                0
            ],
            "name" : "steel_gray",
            "pbrMetallicRoughness" : {
                "baseColorFactor" : [
                    0.03049102984368801,
                    0.03049102984368801,
                    0.03049102984368801,
                    1
                ],
                "metallicFactor" : 1,
                "roughnessFactor" : 0.3272727131843567
            }
        },
        {
            "doubleSided" : true,
            "emissiveFactor" : [
                0,
                0,
                0
            ],
            "name" : "01 - Default",
            "pbrMetallicRoughness" : {
                "baseColorFactor" : [
                    1,
                    1,
                    1,
                    1
                ],
                "metallicFactor" : 1,
                "roughnessFactor" : 0.12424242496490479
            }
        }
    ],
    "meshes" : [
        {
            "name" : "Shure_3",
            "primitives" : [
                {
                    "attributes" : {
                        "POSITION" : 0,
                        "NORMAL" : 1,
                        "TEXCOORD_0" : 2
                    },
                    "indices" : 3,
                    "material" : 0
                }
            ]
        },
        {
            "name" : "Shure_4",
            "primitives" : [
                {
                    "attributes" : {
                        "POSITION" : 4,
                        "NORMAL" : 5,
                        "TEXCOORD_0" : 6
                    },
                    "indices" : 7,
                    "material" : 1
                }
            ]
        },
        {
            "name" : "steel_base",
            "primitives" : [
                {
                    "attributes" : {
                        "POSITION" : 8,
                        "NORMAL" : 9,
                        "TEXCOORD_0" : 10
                    },
                    "indices" : 11,
                    "material" : 0
                }
            ]
        },
        {
            "name" : "steel_gray",
            "primitives" : [
                {
                    "attributes" : {
                        "POSITION" : 12,
                        "NORMAL" : 13,
                        "TEXCOORD_0" : 14
                    },
                    "indices" : 11,
                    "material" : 1
                }
            ]
        },
        {
            "name" : "Mesh",
            "primitives" : [
                {
                    "attributes" : {
                        "POSITION" : 15,
                        "NORMAL" : 16,
                        "TEXCOORD_0" : 17
                    },
                    "indices" : 18,
                    "material" : 2
                }
            ]
        }
    ],
    "accessors" : [
        {
            "bufferView" : 0,
            "componentType" : 5126,
            "count" : 1580,
            "max" : [
                42.812225341796875,
                80.99629211425781,
                42.81222152709961
            ],
            "min" : [
                -42.812225341796875,
                71.246337890625,
                -42.81223678588867
            ],
            "type" : "VEC3"
        },
        {
            "bufferView" : 1,
            "componentType" : 5126,
            "count" : 1580,
            "type" : "VEC3"
        },
        {
            "bufferView" : 2,
            "componentType" : 5126,
            "count" : 1580,
            "type" : "VEC2"
        },
        {
            "bufferView" : 3,
            "componentType" : 5123,
            "count" : 2370,
            "type" : "SCALAR"
        },
        {
            "bufferView" : 4,
            "componentType" : 5126,
            "count" : 4924,
            "max" : [
                36.76056671142578,
                70.95885467529297,
                36.760555267333984
            ],
            "min" : [
                -36.76056671142578,
                -167.2396240234375,
                -36.76057434082031
            ],
            "type" : "VEC3"
        },
        {
            "bufferView" : 5,
            "componentType" : 5126,
            "count" : 4924,
            "type" : "VEC3"
        },
        {
            "bufferView" : 6,
            "componentType" : 5126,
            "count" : 4924,
            "type" : "VEC2"
        },
        {
            "bufferView" : 7,
            "componentType" : 5123,
            "count" : 7440,
            "type" : "SCALAR"
        },
        {
            "bufferView" : 8,
            "componentType" : 5126,
            "count" : 4,
            "max" : [
                1.8750580549240112,
                80.99629211425781,
                -41.25644302368164
            ],
            "min" : [
                -5.5876946449279785,
                80.21499633789062,
                -42.81223678588867
            ],
            "type" : "VEC3"
        },
        {
            "bufferView" : 9,
            "componentType" : 5126,
            "count" : 4,
            "type" : "VEC3"
        },
        {
            "bufferView" : 10,
            "componentType" : 5126,
            "count" : 4,
            "type" : "VEC2"
        },
        {
            "bufferView" : 11,
            "componentType" : 5123,
            "count" : 6,
            "type" : "SCALAR"
        },
        {
            "bufferView" : 12,
            "componentType" : 5126,
            "count" : 4,
            "max" : [
                26.09503173828125,
                -59.940338134765625,
                4.531332015991211
            ],
            "min" : [
                22.415956497192383,
                -129.93988037109375,
                -4.0729912143433467e-05
            ],
            "type" : "VEC3"
        },
        {
            "bufferView" : 13,
            "componentType" : 5126,
            "count" : 4,
            "type" : "VEC3"
        },
        {
            "bufferView" : 14,
            "componentType" : 5126,
            "count" : 4,
            "type" : "VEC2"
        },
        {
            "bufferView" : 15,
            "componentType" : 5126,
            "count" : 47535,
            "max" : [
                57.400146484375,
                178.07138061523438,
                57.400146484375
            ],
            "min" : [
                -57.400146484375,
                63.85421371459961,
                -57.400146484375
            ],
            "type" : "VEC3"
        },
        {
            "bufferView" : 16,
            "componentType" : 5126,
            "count" : 47535,
            "type" : "VEC3"
        },
        {
            "bufferView" : 17,
            "componentType" : 5126,
            "count" : 47535,
            "type" : "VEC2"
        },
        {
            "bufferView" : 18,
            "componentType" : 5123,
            "count" : 95232,
            "type" : "SCALAR"
        }
    ],
    "bufferViews" : [
        {
            "buffer" : 0,
            "byteLength" : 18960,
            "byteOffset" : 0
        },
        {
            "buffer" : 0,
            "byteLength" : 18960,
            "byteOffset" : 18960
        },
        {
            "buffer" : 0,
            "byteLength" : 12640,
            "byteOffset" : 37920
        },
        {
            "buffer" : 0,
            "byteLength" : 4740,
            "byteOffset" : 50560
        },
        {
            "buffer" : 0,
            "byteLength" : 59088,
            "byteOffset" : 55300
        },
        {
            "buffer" : 0,
            "byteLength" : 59088,
            "byteOffset" : 114388
        },
        {
            "buffer" : 0,
            "byteLength" : 39392,
            "byteOffset" : 173476
        },
        {
            "buffer" : 0,
            "byteLength" : 14880,
            "byteOffset" : 212868
        },
        {
            "buffer" : 0,
            "byteLength" : 48,
            "byteOffset" : 227748
        },
        {
            "buffer" : 0,
            "byteLength" : 48,
            "byteOffset" : 227796
        },
        {
            "buffer" : 0,
            "byteLength" : 32,
            "byteOffset" : 227844
        },
        {
            "buffer" : 0,
            "byteLength" : 12,
            "byteOffset" : 227876
        },
        {
            "buffer" : 0,
            "byteLength" : 48,
            "byteOffset" : 227888
        },
        {
            "buffer" : 0,
            "byteLength" : 48,
            "byteOffset" : 227936
        },
        {
            "buffer" : 0,
            "byteLength" : 32,
            "byteOffset" : 227984
        },
        {
            "buffer" : 0,
            "byteLength" : 570420,
            "byteOffset" : 228016
        },
        {
            "buffer" : 0,
            "byteLength" : 570420,
            "byteOffset" : 798436
        },
        {
            "buffer" : 0,
            "byteLength" : 380280,
            "byteOffset" : 1368856
        },
        {
            "buffer" : 0,
            "byteLength" : 190464,
            "byteOffset" : 1749136
        }
    ],
    "buffers" : [
        {
            "byteLength" : 1939600,
            "uri" : "data:application/octet-stream;base64,"
        }
    ]
}
