{
    "asset" : {
        "generator" : "Khronos glTF Blender I/O v1.1.46",
        "version" : "2.0"
    },
    "extensionsUsed" : [
        "KHR_texture_transform"
    ],
    "extensionsRequired" : [
        "KHR_texture_transform"
    ],
    "scene" : 0,
    "scenes" : [
        {
            "name" : "Scene",
            "nodes" : [
                4
            ]
        }
    ],
    "nodes" : [
        {
            "mesh" : 0,
            "name" : "Icosphere"
        },
        {
            "mesh" : 1,
            "name" : "Shure_4"
        },
        {
            "mesh" : 2,
            "name" : "steel_base"
        },
        {
            "mesh" : 3,
            "name" : "steel_gray"
        },
        {
            "children" : [
                0,
                1,
                2,
                3
            ],
            "mesh" : 4,
            "name" : "Shure_3"
        }
    ],
    "materials" : [
        {
            "doubleSided" : true,
            "emissiveFactor" : [
                0,
                0,
                0
            ],
            "name" : "01 - Default",
            "normalTexture" : {
                "extensions" : {
                    "KHR_texture_transform" : {
                        "offset" : [
                            0,
                            -0.24999998137354873
                        ],
                        "scale" : [
                            2.4999999627470975,
                            1.2499999813735487
                        ]
                    }
                },
                "index" : 0,
                "texCoord" : 0
            },
            "pbrMetallicRoughness" : {
                "baseColorFactor" : [
                    1,
                    1,
                    1,
                    1
                ],
                "metallicFactor" : 1,
                "roughnessFactor" : 0.12424242496490479
            }
        },
        {
            "doubleSided" : true,
            "emissiveFactor" : [
                0,
                0,
                0
            ],
            "name" : "steel_gray",
            "pbrMetallicRoughness" : {
                "baseColorFactor" : [
                    0.03049102984368801,
                    0.03049102984368801,
                    0.03049102984368801,
                    1
                ],
                "metallicFactor" : 1,
                "roughnessFactor" : 0.3272727131843567
            }
        },
        {
            "doubleSided" : true,
            "emissiveFactor" : [
                0,
                0,
                0
            ],
            "name" : "steel_base",
            "pbrMetallicRoughness" : {
                "baseColorFactor" : [
                    0.800000011920929,
                    0.800000011920929,
                    0.800000011920929,
                    1
                ],
                "metallicFactor" : 1,
                "roughnessFactor" : 0.1878787875175476
            }
        }
    ],
    "meshes" : [
        {
            "name" : "Icosphere",
            "primitives" : [
                {
                    "attributes" : {
                        "POSITION" : 0,
                        "NORMAL" : 1,
                        "TEXCOORD_0" : 2
                    },
                    "indices" : 3,
                    "material" : 0
                }
            ]
        },
        {
            "name" : "Shure_4",
            "primitives" : [
                {
                    "attributes" : {
                        "POSITION" : 4,
                        "NORMAL" : 5,
                        "TEXCOORD_0" : 6
                    },
                    "indices" : 7,
                    "material" : 1
                }
            ]
        },
        {
            "name" : "steel_base",
            "primitives" : [
                {
                    "attributes" : {
                        "POSITION" : 8,
                        "NORMAL" : 9,
                        "TEXCOORD_0" : 10
                    },
                    "indices" : 11,
                    "material" : 2
                }
            ]
        },
        {
            "name" : "steel_gray",
            "primitives" : [
                {
                    "attributes" : {
                        "POSITION" : 12,
                        "NORMAL" : 13,
                        "TEXCOORD_0" : 14
                    },
                    "indices" : 11,
                    "material" : 1
                }
            ]
        },
        {
            "name" : "Shure_3",
            "primitives" : [
                {
                    "attributes" : {
                        "POSITION" : 15,
                        "NORMAL" : 16,
                        "TEXCOORD_0" : 17
                    },
                    "indices" : 18,
                    "material" : 2
                }
            ]
        }
    ],
    "textures" : [
        {
            "source" : 0
        }
    ],
    "images" : [
        {
            "bufferView" : 4,
            "mimeType" : "image/jpeg",
            "name" : "New_Graph_normal"
        }
    ],
    "accessors" : [
        {
            "bufferView" : 0,
            "componentType" : 5126,
            "count" : 262,
            "max" : [
                59.691688537597656,
                183.39329528808594,
                59.80427169799805
            ],
            "min" : [
                -59.691688537597656,
                63.081031799316406,
                -59.80427169799805
            ],
            "type" : "VEC3"
        },
        {
            "bufferView" : 1,
            "componentType" : 5126,
            "count" : 262,
            "type" : "VEC3"
        },
        {
            "bufferView" : 2,
            "componentType" : 5126,
            "count" : 262,
            "type" : "VEC2"
        },
        {
            "bufferView" : 3,
            "componentType" : 5123,
            "count" : 1440,
            "type" : "SCALAR"
        },
        {
            "bufferView" : 5,
            "componentType" : 5126,
            "count" : 4924,
            "max" : [
                36.76056671142578,
                70.95885467529297,
                36.760555267333984
            ],
            "min" : [
                -36.76056671142578,
                -167.2396240234375,
                -36.76057434082031
            ],
            "type" : "VEC3"
        },
        {
            "bufferView" : 6,
            "componentType" : 5126,
            "count" : 4924,
            "type" : "VEC3"
        },
        {
            "bufferView" : 7,
            "componentType" : 5126,
            "count" : 4924,
            "type" : "VEC2"
        },
        {
            "bufferView" : 8,
            "componentType" : 5123,
            "count" : 7440,
            "type" : "SCALAR"
        },
        {
            "bufferView" : 9,
            "componentType" : 5126,
            "count" : 4,
            "max" : [
                1.8750580549240112,
                80.99629211425781,
                -41.25644302368164
            ],
            "min" : [
                -5.5876946449279785,
                80.21499633789062,
                -42.81223678588867
            ],
            "type" : "VEC3"
        },
        {
            "bufferView" : 10,
            "componentType" : 5126,
            "count" : 4,
            "type" : "VEC3"
        },
        {
            "bufferView" : 11,
            "componentType" : 5126,
            "count" : 4,
            "type" : "VEC2"
        },
        {
            "bufferView" : 12,
            "componentType" : 5123,
            "count" : 6,
            "type" : "SCALAR"
        },
        {
            "bufferView" : 13,
            "componentType" : 5126,
            "count" : 4,
            "max" : [
                26.09503173828125,
                -59.940338134765625,
                4.531332015991211
            ],
            "min" : [
                22.415956497192383,
                -129.93988037109375,
                -4.0729912143433467e-05
            ],
            "type" : "VEC3"
        },
        {
            "bufferView" : 14,
            "componentType" : 5126,
            "count" : 4,
            "type" : "VEC3"
        },
        {
            "bufferView" : 15,
            "componentType" : 5126,
            "count" : 4,
            "type" : "VEC2"
        },
        {
            "bufferView" : 16,
            "componentType" : 5126,
            "count" : 1580,
            "max" : [
                42.812225341796875,
                80.99629211425781,
                42.81222152709961
            ],
            "min" : [
                -42.812225341796875,
                71.246337890625,
                -42.81223678588867
            ],
            "type" : "VEC3"
        },
        {
            "bufferView" : 17,
            "componentType" : 5126,
            "count" : 1580,
            "type" : "VEC3"
        },
        {
            "bufferView" : 18,
            "componentType" : 5126,
            "count" : 1580,
            "type" : "VEC2"
        },
        {
            "bufferView" : 19,
            "componentType" : 5123,
            "count" : 2370,
            "type" : "SCALAR"
        }
    ],
    "bufferViews" : [
        {
            "buffer" : 0,
            "byteLength" : 3144,
            "byteOffset" : 0
        },
        {
            "buffer" : 0,
            "byteLength" : 3144,
            "byteOffset" : 3144
        },
        {
            "buffer" : 0,
            "byteLength" : 2096,
            "byteOffset" : 6288
        },
        {
            "buffer" : 0,
            "byteLength" : 2880,
            "byteOffset" : 8384
        },
        {
            "buffer" : 0,
            "byteLength" : 397256,
            "byteOffset" : 11264
        },
        {
            "buffer" : 0,
            "byteLength" : 59088,
            "byteOffset" : 408520
        },
        {
            "buffer" : 0,
            "byteLength" : 59088,
            "byteOffset" : 467608
        },
        {
            "buffer" : 0,
            "byteLength" : 39392,
            "byteOffset" : 526696
        },
        {
            "buffer" : 0,
            "byteLength" : 14880,
            "byteOffset" : 566088
        },
        {
            "buffer" : 0,
            "byteLength" : 48,
            "byteOffset" : 580968
        },
        {
            "buffer" : 0,
            "byteLength" : 48,
            "byteOffset" : 581016
        },
        {
            "buffer" : 0,
            "byteLength" : 32,
            "byteOffset" : 581064
        },
        {
            "buffer" : 0,
            "byteLength" : 12,
            "byteOffset" : 581096
        },
        {
            "buffer" : 0,
            "byteLength" : 48,
            "byteOffset" : 581108
        },
        {
            "buffer" : 0,
            "byteLength" : 48,
            "byteOffset" : 581156
        },
        {
            "buffer" : 0,
            "byteLength" : 32,
            "byteOffset" : 581204
        },
        {
            "buffer" : 0,
            "byteLength" : 18960,
            "byteOffset" : 581236
        },
        {
            "buffer" : 0,
            "byteLength" : 18960,
            "byteOffset" : 600196
        },
        {
            "buffer" : 0,
            "byteLength" : 12640,
            "byteOffset" : 619156
        },
        {
            "buffer" : 0,
            "byteLength" : 4740,
            "byteOffset" : 631796
        }
    ],
    "buffers" : [
        {
            "byteLength" : 636536,
            "uri" : "data:application/octet-stream;base64,"
        }
    ]
}
