{
    "asset" : {
        "generator" : "Khronos glTF Blender I/O v1.1.46",
        "version" : "2.0"
    },
    "extensionsUsed" : [
        "KHR_texture_transform"
    ],
    "extensionsRequired" : [
        "KHR_texture_transform"
    ],
    "scene" : 0,
    "scenes" : [
        {
            "name" : "Scene",
            "nodes" : [
                4
            ]
        }
    ],
    "nodes" : [
        {
            "mesh" : 0,
            "name" : "Shure_4"
        },
        {
            "mesh" : 1,
            "name" : "Sphere"
        },
        {
            "mesh" : 2,
            "name" : "steel_base"
        },
        {
            "mesh" : 3,
            "name" : "steel_gray"
        },
        {
            "children" : [
                0,
                1,
                2,
                3
            ],
            "mesh" : 4,
            "name" : "Shure_3"
        }
    ],
    "materials" : [
        {
            "doubleSided" : true,
            "emissiveFactor" : [
                0,
                0,
                0
            ],
            "name" : "steel_gray",
            "pbrMetallicRoughness" : {
                "baseColorFactor" : [
                    0.03049102984368801,
                    0.03049102984368801,
                    0.03049102984368801,
                    1
                ],
                "metallicFactor" : 1,
                "roughnessFactor" : 0.3272727131843567
            }
        },
        {
            "doubleSided" : true,
            "emissiveFactor" : [
                0,
                0,
                0
            ],
            "name" : "01 - Default",
            "normalTexture" : {
                "extensions" : {
                    "KHR_texture_transform" : {
                        "offset" : [
                            0,
                            -0.6666666004392863
                        ],
                        "scale" : [
                            3.3333332008785725,
                            1.6666666004392863
                        ]
                    }
                },
                "index" : 0,
                "texCoord" : 0
            },
            "pbrMetallicRoughness" : {
                "baseColorFactor" : [
                    1,
                    1,
                    1,
                    1
                ],
                "metallicFactor" : 1,
                "roughnessFactor" : 0.12424242496490479
            }
        },
        {
            "doubleSided" : true,
            "emissiveFactor" : [
                0,
                0,
                0
            ],
            "name" : "steel_base",
            "pbrMetallicRoughness" : {
                "baseColorFactor" : [
                    0.800000011920929,
                    0.800000011920929,
                    0.800000011920929,
                    1
                ],
                "metallicFactor" : 1,
                "roughnessFactor" : 0.1878787875175476
            }
        }
    ],
    "meshes" : [
        {
            "name" : "Shure_4",
            "primitives" : [
                {
                    "attributes" : {
                        "POSITION" : 0,
                        "NORMAL" : 1,
                        "TEXCOORD_0" : 2
                    },
                    "indices" : 3,
                    "material" : 0
                }
            ]
        },
        {
            "name" : "Sphere",
            "primitives" : [
                {
                    "attributes" : {
                        "POSITION" : 4,
                        "NORMAL" : 5,
                        "TEXCOORD_0" : 6
                    },
                    "indices" : 7,
                    "material" : 1
                }
            ]
        },
        {
            "name" : "steel_base",
            "primitives" : [
                {
                    "attributes" : {
                        "POSITION" : 8,
                        "NORMAL" : 9,
                        "TEXCOORD_0" : 10
                    },
                    "indices" : 11,
                    "material" : 2
                }
            ]
        },
        {
            "name" : "steel_gray",
            "primitives" : [
                {
                    "attributes" : {
                        "POSITION" : 12,
                        "NORMAL" : 13,
                        "TEXCOORD_0" : 14
                    },
                    "indices" : 11,
                    "material" : 0
                }
            ]
        },
        {
            "name" : "Shure_3",
            "primitives" : [
                {
                    "attributes" : {
                        "POSITION" : 15,
                        "NORMAL" : 16,
                        "TEXCOORD_0" : 17
                    },
                    "indices" : 18,
                    "material" : 2
                }
            ]
        }
    ],
    "textures" : [
        {
            "source" : 0
        }
    ],
    "images" : [
        {
            "bufferView" : 8,
            "mimeType" : "image/jpeg",
            "name" : "New_Graph_normal"
        }
    ],
    "accessors" : [
        {
            "bufferView" : 0,
            "componentType" : 5126,
            "count" : 4928,
            "max" : [
                32.68047332763672,
                63.08305740356445,
                32.68046188354492
            ],
            "min" : [
                -32.68047332763672,
                -148.67752075195312,
                -32.68048095703125
            ],
            "type" : "VEC3"
        },
        {
            "bufferView" : 1,
            "componentType" : 5126,
            "count" : 4928,
            "type" : "VEC3"
        },
        {
            "bufferView" : 2,
            "componentType" : 5126,
            "count" : 4928,
            "type" : "VEC2"
        },
        {
            "bufferView" : 3,
            "componentType" : 5123,
            "count" : 7440,
            "type" : "SCALAR"
        },
        {
            "bufferView" : 4,
            "componentType" : 5126,
            "count" : 798,
            "max" : [
                51.98311996459961,
                162.1462860107422,
                51.983131408691406
            ],
            "min" : [
                -51.98310089111328,
                53.15662384033203,
                -51.98310852050781
            ],
            "type" : "VEC3"
        },
        {
            "bufferView" : 5,
            "componentType" : 5126,
            "count" : 798,
            "type" : "VEC3"
        },
        {
            "bufferView" : 6,
            "componentType" : 5126,
            "count" : 798,
            "type" : "VEC2"
        },
        {
            "bufferView" : 7,
            "componentType" : 5123,
            "count" : 3264,
            "type" : "SCALAR"
        },
        {
            "bufferView" : 9,
            "componentType" : 5126,
            "count" : 4,
            "max" : [
                1.6669434309005737,
                72.00642395019531,
                -36.677345275878906
            ],
            "min" : [
                -4.96751070022583,
                71.31185150146484,
                -38.060462951660156
            ],
            "type" : "VEC3"
        },
        {
            "bufferView" : 10,
            "componentType" : 5126,
            "count" : 4,
            "type" : "VEC3"
        },
        {
            "bufferView" : 11,
            "componentType" : 5126,
            "count" : 4,
            "type" : "VEC2"
        },
        {
            "bufferView" : 12,
            "componentType" : 5123,
            "count" : 6,
            "type" : "SCALAR"
        },
        {
            "bufferView" : 13,
            "componentType" : 5126,
            "count" : 4,
            "max" : [
                23.19871711730957,
                -53.28749465942383,
                4.02839469909668
            ],
            "min" : [
                19.92798614501953,
                -115.51771545410156,
                -3.62092541763559e-05
            ],
            "type" : "VEC3"
        },
        {
            "bufferView" : 14,
            "componentType" : 5126,
            "count" : 4,
            "type" : "VEC3"
        },
        {
            "bufferView" : 15,
            "componentType" : 5126,
            "count" : 4,
            "type" : "VEC2"
        },
        {
            "bufferView" : 16,
            "componentType" : 5126,
            "count" : 1580,
            "max" : [
                38.06045150756836,
                72.00642395019531,
                38.060447692871094
            ],
            "min" : [
                -38.06045150756836,
                63.33863067626953,
                -38.060462951660156
            ],
            "type" : "VEC3"
        },
        {
            "bufferView" : 17,
            "componentType" : 5126,
            "count" : 1580,
            "type" : "VEC3"
        },
        {
            "bufferView" : 18,
            "componentType" : 5126,
            "count" : 1580,
            "type" : "VEC2"
        },
        {
            "bufferView" : 19,
            "componentType" : 5123,
            "count" : 2370,
            "type" : "SCALAR"
        }
    ],
    "bufferViews" : [
        {
            "buffer" : 0,
            "byteLength" : 59136,
            "byteOffset" : 0
        },
        {
            "buffer" : 0,
            "byteLength" : 59136,
            "byteOffset" : 59136
        },
        {
            "buffer" : 0,
            "byteLength" : 39424,
            "byteOffset" : 118272
        },
        {
            "buffer" : 0,
            "byteLength" : 14880,
            "byteOffset" : 157696
        },
        {
            "buffer" : 0,
            "byteLength" : 9576,
            "byteOffset" : 172576
        },
        {
            "buffer" : 0,
            "byteLength" : 9576,
            "byteOffset" : 182152
        },
        {
            "buffer" : 0,
            "byteLength" : 6384,
            "byteOffset" : 191728
        },
        {
            "buffer" : 0,
            "byteLength" : 6528,
            "byteOffset" : 198112
        },
        {
            "buffer" : 0,
            "byteLength" : 397256,
            "byteOffset" : 204640
        },
        {
            "buffer" : 0,
            "byteLength" : 48,
            "byteOffset" : 601896
        },
        {
            "buffer" : 0,
            "byteLength" : 48,
            "byteOffset" : 601944
        },
        {
            "buffer" : 0,
            "byteLength" : 32,
            "byteOffset" : 601992
        },
        {
            "buffer" : 0,
            "byteLength" : 12,
            "byteOffset" : 602024
        },
        {
            "buffer" : 0,
            "byteLength" : 48,
            "byteOffset" : 602036
        },
        {
            "buffer" : 0,
            "byteLength" : 48,
            "byteOffset" : 602084
        },
        {
            "buffer" : 0,
            "byteLength" : 32,
            "byteOffset" : 602132
        },
        {
            "buffer" : 0,
            "byteLength" : 18960,
            "byteOffset" : 602164
        },
        {
            "buffer" : 0,
            "byteLength" : 18960,
            "byteOffset" : 621124
        },
        {
            "buffer" : 0,
            "byteLength" : 12640,
            "byteOffset" : 640084
        },
        {
            "buffer" : 0,
            "byteLength" : 4740,
            "byteOffset" : 652724
        }
    ],
    "buffers" : [
        {
            "byteLength" : 657464,
            "uri" : "data:application/octet-stream;base64,"
        }
    ]
}
