<svg xmlns="http://www.w3.org/2000/svg" width="54.094" height="58.826" viewBox="0 0 54.094 58.826">
  <g id="BANG_LOGOldpi" transform="translate(-139.21 -0.02)">
    <g id="Layer_1" data-name="Layer 1" transform="translate(139.21 0.02)">
      <path id="Path_7" data-name="Path 7" d="M157.241,19.522a1.81,1.81,0,0,1,.556,0c.144-.326.383-.268.354-.556-.077-.728-2.7-4.789,3.975-7.155,0,0,2.031,6.485-1.916,7.1a2.462,2.462,0,0,0-.632,1.58c.144.23.287.46.441.68.259-1.283,1.159-3.113,5.2-2.663,0,0-.8,5.268-3.755,4.464a11.331,11.331,0,0,0,4.933,3.276c3.237.881,8.716-3.918,8.716-3.918,2.088,3.257-2,7.969-2,7.969,7.241,2.538,16.628-8.956,17.241-13.917A29.367,29.367,0,0,0,143.86,8.037C155.843,13.583,157.241,19.522,157.241,19.522Z" transform="translate(-139.406 -0.02)" fill="#d01d34"/>
      <path id="Path_8" data-name="Path 8" d="M191.881,21.38c-2.634,9.348-11.216,18.505-11.216,18.505l.67,2.874c1.351,6.207-4.272,7.145-4.272,7.145.354,1.916-1.839,2.462-1.839,2.462-13.477-7.145-22.078-7.4-22.078-7.4a1.839,1.839,0,0,1-1.092-2.73,13.7,13.7,0,0,0-1.216-4.214l-.278.354-.738.3s.354,1.274.077,1.743c0,0-2.375.374-3.027.441L142.438,44l-3.228,2.27a29.386,29.386,0,0,0,52.681-24.9Z" transform="translate(-139.21 -0.92)" fill="#d01d34"/>
    </g>
  </g>
</svg>
