<svg xmlns="http://www.w3.org/2000/svg" width="46.891" height="40.931" viewBox="0 0 46.891 40.931">
  <g id="Group_30" data-name="Group 30" transform="translate(0 0)">
    <path id="Path_12" data-name="Path 12" d="M26.906,43.555c5.34-3.206,8.217,1.313,5.48,6.421-2.743,5.129-5.26,8.472-6.565,8.472-1.281,0-2.295-3.441-3.8-9.413-1.539-6.187-1.539-17.341-7.974-16.074C7.968,34.162,0,43.687,0,43.687l1.893,2.494s3.927-3.1,5.234-1.556c1.325,1.556,6.339,20.242,8,23.7,1.448,3.027,5.466,7.022,9.856,4.173,4.431-2.866,19.058-15.356,21.678-30.136C49.273,27.606,29.028,30.7,26.906,43.555Z" transform="translate(0 -32.54)" fill="#fff"/>
  </g>
</svg>
