<svg xmlns="http://www.w3.org/2000/svg" xmlns:xlink="http://www.w3.org/1999/xlink" width="608.84" height="295.331" viewBox="0 0 608.84 295.331">
  <defs>
    <radialGradient id="radial-gradient" cx="0.281" cy="0.318" r="0.822" gradientTransform="matrix(0.635, 0.772, -0.654, 0.538, 0.31, -0.07)" gradientUnits="objectBoundingBox">
      <stop offset="0" stop-color="#d60000"/>
      <stop offset="1" stop-color="#860000"/>
    </radialGradient>
  </defs>
  <path id="Exclusion_1" data-name="Exclusion 1" d="M-18438.82-2486.42v-45.261c0-13.781,7.254-21.646,20.535-21.646s20.547,7.865,20.547,21.646v45.261c0,13.782-7.258,21.647-20.547,21.647S-18438.82-2472.638-18438.82-2486.42Zm13.527-46.125v46.99c0,6.145,2.7,8.483,7.008,8.483s7.02-2.339,7.02-8.483v-46.99c0-6.145-2.715-8.484-7.02-8.484S-18425.293-2538.689-18425.293-2532.545Zm-491.387,46.125v-4.916h12.793v5.9c0,6.153,2.711,8.365,7.008,8.365s7.02-2.212,7.02-8.611c0-7.128-2.715-11.679-11.57-19.435-11.316-9.959-15-16.969-15-26.809,0-13.536,7.012-21.4,20.176-21.4s19.68,7.865,19.68,21.646v3.568h-12.789v-4.433c0-6.145-2.469-8.484-6.766-8.484s-6.773,2.34-6.773,8.238c0,6.272,2.832,10.823,11.691,18.579,11.313,9.959,14.883,16.851,14.883,27.546,0,14.028-7.137,21.894-20.418,21.894S-18916.68-2472.638-18916.68-2486.42Zm428.9,20.418v-86.1h20.664c13.527,0,20.172,7.5,20.172,21.274v43.549c0,13.772-6.645,21.273-20.172,21.273Zm13.527-12.3h6.891c4.3,0,6.891-2.212,6.891-8.366v-44.769c0-6.153-2.586-8.365-6.891-8.365h-6.891Zm-77.859,12.3v-86.1h36.9v12.3h-23.367v22.757h18.57v12.3h-18.57v26.444h23.367v12.3Zm-32.469,0-6.145-58.05h-.246l-6.156,58.05h-17.961l-8.727-86.1h13.035l6.023,66.17h.246l6.4-66.17h14.754l6.4,66.17h.246l6.027-66.17h11.688l-8.738,86.1Zm-89.914,0v-73.8h-14.145v-12.3h41.82v12.3h-14.148v73.8Zm-24.969,0-2.457-17.1v.246h-15.375l-2.457,16.85h-12.555l14.027-86.1h18.324l14.02,86.1Zm-16.23-28.538h12.172l-6.027-42.557h-.246Zm-36.656,28.538v-38.742h-14.512V-2466h-13.535v-86.1h13.535v35.056h14.512V-2552.1h13.527v86.1Zm-60.52,0-6.152-58.05h-.246l-6.145,58.05h-17.961l-8.73-86.1h13.035l6.027,66.17h.246l6.4-66.17h14.758l6.4,66.17h.246l6.027-66.17h11.688l-8.738,86.1Zm-125.094,0v-86.1h13.535v86.1Zm512.668-124.421v-45.26c0-13.773,7.254-21.647,20.535-21.647s20.547,7.874,20.547,21.647v45.26c0,13.782-7.258,21.656-20.547,21.656S-18425.293-2576.641-18425.293-2590.423Zm13.535-46.116v46.981c0,6.153,2.7,8.484,7,8.484,4.316,0,7.02-2.331,7.02-8.484v-46.981c0-6.153-2.7-8.493-7.02-8.493C-18409.055-2645.032-18411.758-2642.692-18411.758-2636.539Zm-172.574,46.617v-46.253c0-13.281,6.891-21.155,19.926-21.155s19.926,7.874,19.926,21.155v9.1h-12.789v-9.968c0-5.653-2.7-7.993-6.766-7.993s-6.762,2.34-6.762,7.993v48.1c0,5.652,2.7,7.865,6.762,7.865s6.766-2.213,6.766-7.865V-2602.1h12.789v12.18c0,13.281-6.891,21.155-19.926,21.155S-18584.332-2576.641-18584.332-2589.922Zm-125.215-.5V-2656.1h13.527v66.671c0,6.145,2.586,8.357,6.891,8.357s6.891-2.213,6.891-8.357V-2656.1h13.035v65.679c0,13.782-6.891,21.656-20.172,21.656S-18709.547-2576.641-18709.547-2590.423Zm-182.043,0v-45.26c0-13.773,7.266-21.647,20.547-21.647s20.535,7.874,20.535,21.647v45.26c0,13.782-7.254,21.656-20.535,21.656S-18891.59-2576.641-18891.59-2590.423Zm13.535-46.116v46.981c0,6.153,2.7,8.484,7.012,8.484s7.008-2.331,7.008-8.484v-46.981c0-6.153-2.7-8.493-7.008-8.493S-18878.055-2642.692-18878.055-2636.539Zm-60.762,46.617v-46.253c0-13.281,6.891-21.155,19.926-21.155s19.926,7.874,19.926,21.155v9.1h-12.8v-9.968c0-5.653-2.7-7.993-6.766-7.993s-6.762,2.34-6.762,7.993v48.1c0,5.652,2.7,7.865,6.762,7.865s6.766-2.213,6.766-7.865V-2602.1h12.8v12.18c0,13.281-6.891,21.155-19.926,21.155S-18938.816-2576.641-18938.816-2589.922ZM-18346.57-2570l-16.242-62.848h-.242V-2570h-12.055v-86.1h16.969l13.172,51.542h.246V-2656.1h12.043v86.1Zm-101.355,0v-86.1h13.527v86.1Zm-34.191,0v-73.8h-14.145v-12.3h41.82v12.3h-14.148v73.8Zm-24.977,0-2.449-17.1v.245h-15.375l-2.469,16.851h-12.543l14.02-86.1h18.332l14.02,86.1Zm-16.23-28.529h12.18l-6.027-42.557h-.254Zm-83.758,28.529v-86.1h13.527v86.1Zm-23.988,0-16.238-62.848h-.246V-2570h-12.051v-86.1h16.977l13.152,51.542h.246V-2656.1h12.063v86.1Zm-100.859,0v-65.187h-.246l-9.84,65.188h-11.316l-9.84-65.187h-.246V-2570h-11.809v-86.1h19.309l8.613,61.628h.246l8.609-61.628h19.309v86.1Zm-66.172,0v-65.187h-.246l-9.84,65.188h-11.324l-9.84-65.187h-.246V-2570h-11.809v-86.1h19.316l8.613,61.628h.246l8.6-61.628h19.316v86.1Zm24.352-124.412V-2760.1h13.527v66.671c0,6.145,2.586,8.365,6.891,8.365s6.891-2.221,6.891-8.365V-2760.1h13.035v65.688c0,13.773-6.891,21.647-20.172,21.647S-18773.75-2680.643-18773.75-2694.416Zm99.012,20.418V-2760.1h13.527v73.808h22.27v12.3Zm-20.043,0-2.469-17.1v.246h-15.375l-2.457,16.85h-12.543l14.02-86.105h18.332l14.02,86.105Zm-16.238-28.538h12.18l-6.027-42.557h-.246Zm-96.43,28.538v-73.8h-14.148V-2760.1h41.82v12.307h-14.145v73.8Zm-31.98,0c-.746-2.212-1.238-3.568-1.238-10.577v-15.749c0-7.992-2.328-10.577-8.484-10.577h-4.668v36.9h-13.539V-2760.1h20.055c14.02,0,20.047,6.526,20.047,19.808v5.289c0,8.857-2.832,14.511-8.859,16.969v.255c6.766,2.084,8.984,8.483,8.984,18.2v15.13c0,4.188.121,7.255,1.477,10.459Zm-14.391-49.2h4.914c5.043,0,8.121-2.212,8.121-9.1v-6.646c0-6.145-2.094-8.849-6.891-8.849h-6.145Zm-37.152,49.2V-2760.1h13.527V-2674Zm-37.512,0-13.035-86.105h13.645l8.859,66.789h.242l8.859-66.789h12.426l-13.035,86.105Z" transform="translate(18941.52 2760.104)" fill="url(#radial-gradient)"/>
</svg>
